<svg width="17" height="17" viewBox="0 0 17 17" fill="none" xmlns="http://www.w3.org/2000/svg">
  <path fill-rule="evenodd" clip-rule="evenodd" d="M1.82912 0.292761C1.4386 -0.0977629 0.805434 -0.0977632 0.41491 0.292761L0.292761 0.41491C-0.0977631 0.805434 -0.0977622 1.4386 0.292762 1.82912L6.49928 8.03564L0.292762 14.2422C-0.0977622 14.6327 -0.097763 15.2659 0.292761 15.6564L0.41491 15.7785C0.805434 16.1691 1.4386 16.1691 1.82912 15.7785L8.03564 9.57201L14.2422 15.7785C14.6327 16.1691 15.2659 16.1691 15.6564 15.7785L15.7785 15.6564C16.1691 15.2659 16.1691 14.6327 15.7785 14.2422L9.57201 8.03564L15.7785 1.82912C16.1691 1.4386 16.1691 0.805434 15.7785 0.41491L15.6564 0.292761C15.2659 -0.0977632 14.6327 -0.0977629 14.2422 0.292761L8.03564 6.49928L1.82912 0.292761Z" fill="white" />
</svg>