<svg width="98" height="52" viewBox="0 0 98 52" fill="none" xmlns="http://www.w3.org/2000/svg">
<path fill-rule="evenodd" clip-rule="evenodd" d="M36.0942 0.25C35.542 0.25 35.0942 0.697715 35.0942 1.25V5.52495C35.0942 6.07724 35.542 6.52495 36.0942 6.52495H72.4212C82.5482 6.52495 90.5016 14.3216 90.5016 24.4144C90.5016 24.7 90.7331 24.9315 91.0187 24.9315H96.2809C96.5664 24.9315 96.7979 24.7 96.7979 24.4144C96.7979 10.9252 85.9559 0.25 72.4212 0.25H36.0942Z" fill="#6B7B84" stroke="#80949F" stroke-width="0.5"/>
<path fill-rule="evenodd" clip-rule="evenodd" d="M6.63075 25.3697C6.63075 25.1276 6.43452 24.9314 6.19246 24.9314H0.68829C0.446229 24.9314 0.25 25.1276 0.25 25.3697C0.25 39.0191 10.4732 50.2885 23.6927 51.0261L66.0343 51.0638C66.5869 51.0643 67.0352 50.6165 67.0352 50.0638V45.4842C67.0352 44.9319 66.5875 44.4842 66.0352 44.4842H25.1505C14.9142 44.4559 6.63075 35.9405 6.63075 25.3697Z" fill="#6B7B84" stroke="#80949F" stroke-width="0.5"/>
<path fill-rule="evenodd" clip-rule="evenodd" d="M27.6654 39.4499C30.4043 39.4499 32.6856 38.9178 34.9388 37.823L35.0944 37.6774V29.843L34.2512 30.9224C32.6288 32.6953 30.4499 33.6712 27.9847 33.6712C23.3931 33.6712 18.7815 30.7033 18.7815 25.0313C18.7815 20.7449 21.962 16.1895 27.8233 16.1895C28.9928 16.1895 31.8369 16.466 34.2471 19.0255L35.0944 20.0692V12.2702L34.9457 12.1228C32.6498 10.9722 30.3082 10.4128 27.6376 10.4128C23.0706 10.4128 19.506 11.6152 16.6678 14.0864C14.8674 15.6352 11.8647 19.106 11.8647 24.9497C11.8647 29.2705 13.4033 32.645 16.6908 35.5718C19.7491 38.2537 23.1402 39.4499 27.6654 39.4499Z" fill="#6B7B84"/>
<path d="M27.6654 39.4499C30.4043 39.4499 32.6856 38.9178 34.9388 37.823L35.0944 37.6774V29.843L34.2512 30.9224C32.6288 32.6953 30.4499 33.6712 27.9847 33.6712C23.3931 33.6712 18.7815 30.7033 18.7815 25.0313C18.7815 20.7449 21.962 16.1895 27.8233 16.1895C28.9928 16.1895 31.8369 16.466 34.2471 19.0255L35.0944 20.0692V12.2702L34.9457 12.1228C32.6498 10.9722 30.3082 10.4128 27.6376 10.4128C23.0706 10.4128 19.506 11.6152 16.6678 14.0864C14.8674 15.6352 11.8647 19.106 11.8647 24.9497C11.8647 29.2705 13.4033 32.645 16.6908 35.5718C19.7491 38.2537 23.1402 39.4499 27.6654 39.4499" stroke="#80949F" stroke-width="0.5"/>
<path fill-rule="evenodd" clip-rule="evenodd" d="M47.4352 16.9462H48.7995C50.051 16.9462 51.4773 17.0145 52.5569 17.7503C53.084 18.1269 53.9685 18.9986 53.9685 20.5819C53.9685 21.7519 53.4515 22.8011 52.5974 23.4557C51.5024 24.2505 50.2008 24.205 49.155 24.205H47.4352V16.9462ZM50.5009 29.4753C53.7323 29.4753 56.2617 28.5433 58.0182 26.7873C60.1789 24.631 60.5019 21.6648 60.5019 20.101C60.5019 18.4277 60.1052 15.1641 57.4451 12.801C55.2647 10.8903 52.9381 10.4128 49.6563 10.4128H40.9019V39.4499H47.5604V29.4753H50.5009Z" fill="#6B7B84"/>
<path d="M47.4352 16.9462V16.6962H47.1852V16.9462H47.4352ZM52.5569 17.7503L52.7022 17.5468L52.6977 17.5437L52.5569 17.7503ZM52.5974 23.4557L52.7443 23.6581L52.7495 23.6541L52.5974 23.4557ZM47.4352 24.205H47.1852V24.455H47.4352V24.205ZM58.0182 26.7873L57.8416 26.6103L57.8415 26.6105L58.0182 26.7873ZM57.4451 12.801L57.6112 12.6141L57.6099 12.6129L57.4451 12.801ZM40.9019 10.4128V10.1628H40.6519V10.4128H40.9019ZM40.9019 39.4499H40.6519V39.6999H40.9019V39.4499ZM47.5604 39.4499V39.6999H47.8104V39.4499H47.5604ZM47.5604 29.4753V29.2253H47.3104V29.4753H47.5604ZM47.4352 17.1962H48.7995V16.6962H47.4352V17.1962ZM48.7995 17.1962C50.0567 17.1962 51.4079 17.2697 52.4161 17.9569L52.6977 17.5437C51.5468 16.7592 50.0452 16.6962 48.7995 16.6962V17.1962ZM52.4116 17.9537C52.8992 18.3021 53.7185 19.1069 53.7185 20.5819H54.2185C54.2185 18.8903 53.2689 17.9517 52.7022 17.5469L52.4116 17.9537ZM53.7185 20.5819C53.7185 21.6779 53.2348 22.6522 52.4453 23.2573L52.7495 23.6541C53.6681 22.95 54.2185 21.826 54.2185 20.5819H53.7185ZM52.4506 23.2534C51.4332 23.9919 50.2212 23.955 49.155 23.955V24.455C50.1805 24.455 51.5716 24.5092 52.7443 23.658L52.4506 23.2534ZM49.155 23.955H47.4352V24.455H49.155V23.955ZM47.6852 24.205V16.9462H47.1852V24.205H47.6852ZM50.5009 29.7253C53.7808 29.7253 56.3803 28.7782 58.195 26.9641L57.8415 26.6105C56.1431 28.3083 53.6838 29.2253 50.5009 29.2253V29.7253ZM58.1948 26.9643C60.4269 24.7368 60.7519 21.6862 60.7519 20.101H60.2519C60.2519 21.6434 59.931 24.5253 57.8416 26.6103L58.1948 26.9643ZM60.7519 20.101C60.7519 18.3996 60.3502 15.0473 57.6112 12.6141L57.2791 12.9879C59.8602 15.2808 60.2519 18.4558 60.2519 20.101H60.7519ZM57.6099 12.6129C55.3639 10.6449 52.9657 10.1628 49.6563 10.1628V10.6628C52.9106 10.6628 55.1654 11.1357 57.2804 12.989L57.6099 12.6129ZM49.6563 10.1628H40.9019V10.6628H49.6563V10.1628ZM40.6519 10.4128V39.4499H41.1519V10.4128H40.6519ZM40.9019 39.6999H47.5604V39.1999H40.9019V39.6999ZM47.8104 39.4499V29.4753H47.3104V39.4499H47.8104ZM47.5604 29.7253H50.5009V29.2253H47.5604V29.7253Z" fill="#80949F"/>
<path fill-rule="evenodd" clip-rule="evenodd" d="M80.4769 24.1261C79.0293 22.8435 77.0085 22.1 74.715 21.3288C73.0808 20.7601 72.1804 20.4469 71.5802 19.8996C71.1064 19.4974 70.8951 19.0608 70.8951 18.4837C70.8951 17.2196 71.754 15.8688 74.1653 15.8688C75.804 15.8688 77.1761 16.5695 78.2436 17.9505L78.6674 18.4989L82.1837 14.023L81.8631 13.702C79.7126 11.5499 76.8788 10.4128 73.6679 10.4128C67.1896 10.4128 64.2897 14.6274 64.2897 18.8043C64.2897 21.0457 65.089 22.8535 66.6606 24.1749C68.0676 25.3809 69.7835 26.0566 71.4293 26.6081L71.6154 26.6698C73.0769 27.1529 74.5885 27.6529 75.4913 28.4609C76.1194 29.038 76.3993 29.6651 76.3993 30.4942C76.3993 32.3942 74.903 33.6712 72.676 33.6712C70.9156 33.6712 68.5975 32.8083 67.3711 30.3871L67.0503 29.7528L62.6797 33.7985L62.9374 34.1631C64.3319 36.1375 67.4784 39.4499 72.8833 39.4499C78.843 39.4499 83.0056 35.6183 83.0056 30.1326C83.0056 26.9949 81.629 25.1327 80.4769 24.1261Z" fill="#6B7B84"/>
<path d="M80.4769 24.1261C79.0293 22.8435 77.0085 22.1 74.715 21.3288C73.0808 20.7601 72.1804 20.4469 71.5802 19.8996C71.1064 19.4974 70.8951 19.0608 70.8951 18.4837C70.8951 17.2196 71.754 15.8688 74.1653 15.8688C75.804 15.8688 77.1761 16.5695 78.2436 17.9505L78.6674 18.4989L82.1837 14.023L81.8631 13.702C79.7126 11.5499 76.8788 10.4128 73.6679 10.4128C67.1896 10.4128 64.2897 14.6274 64.2897 18.8043C64.2897 21.0457 65.089 22.8535 66.6606 24.1749C68.0676 25.3809 69.7835 26.0566 71.4293 26.6081L71.6154 26.6698C73.0769 27.1529 74.5885 27.6529 75.4913 28.4609C76.1194 29.038 76.3993 29.6651 76.3993 30.4942C76.3993 32.3942 74.903 33.6712 72.676 33.6712C70.9156 33.6712 68.5975 32.8083 67.3711 30.3871L67.0503 29.7528L62.6797 33.7985L62.9374 34.1631C64.3319 36.1375 67.4784 39.4499 72.8833 39.4499C78.843 39.4499 83.0056 35.6183 83.0056 30.1326C83.0056 26.9949 81.629 25.1327 80.4769 24.1261" stroke="#80949F" stroke-width="0.5"/>
</svg>
